<svg width="42" height="42" viewBox="0 0 42 42" fill="none" xmlns="http://www.w3.org/2000/svg">
<path d="M20.9918 35.6042C21.3693 35.6042 21.7341 35.741 22.0187 35.9891C22.3033 36.2373 22.4883 36.5801 22.5397 36.9542L22.5543 37.1667V40.2917C22.5541 40.6876 22.4037 41.0687 22.1335 41.3579C21.8632 41.6472 21.4932 41.8231 21.0983 41.8501C20.7033 41.8771 20.3128 41.7531 20.0057 41.5033C19.6986 41.2535 19.4978 40.8964 19.4438 40.5042L19.4293 40.2917V37.1667C19.4293 36.7523 19.5939 36.3549 19.8869 36.0619C20.1799 35.7688 20.5774 35.6042 20.9918 35.6042ZM33.5376 31.2855L35.7459 33.4959C36.0219 33.7921 36.1722 34.1838 36.165 34.5886C36.1579 34.9934 35.9939 35.3796 35.7076 35.6659C35.4214 35.9522 35.0351 36.1162 34.6303 36.1233C34.2256 36.1305 33.8338 35.9802 33.5376 35.7042L31.3272 33.4959C31.1737 33.3528 31.0505 33.1803 30.9651 32.9887C30.8797 32.797 30.8338 32.5901 30.8301 32.3803C30.8264 32.1705 30.865 31.9621 30.9436 31.7676C31.0222 31.573 31.1391 31.3963 31.2875 31.2479C31.4359 31.0995 31.6126 30.9825 31.8072 30.904C32.0017 30.8254 32.2101 30.7868 32.4199 30.7905C32.6297 30.7942 32.8366 30.8401 33.0283 30.9255C33.22 31.0109 33.3925 31.134 33.5355 31.2875L33.5376 31.2855ZM10.6543 31.2855C10.7995 31.4306 10.9146 31.6029 10.9932 31.7925C11.0718 31.9821 11.1123 32.1854 11.1123 32.3907C11.1123 32.5959 11.0718 32.7992 10.9932 32.9888C10.9146 33.1785 10.7995 33.3508 10.6543 33.4959L8.44593 35.7042C8.30288 35.8577 8.13038 35.9809 7.93871 36.0663C7.74705 36.1517 7.54015 36.1976 7.33035 36.2013C7.12055 36.205 6.91216 36.1664 6.7176 36.0878C6.52304 36.0092 6.3463 35.8922 6.19793 35.7439C6.04956 35.5955 5.93259 35.4188 5.854 35.2242C5.77542 35.0296 5.73683 34.8213 5.74053 34.6115C5.74423 34.4017 5.79015 34.1948 5.87555 34.0031C5.96095 33.8114 6.08408 33.6389 6.23759 33.4959L8.44593 31.2875C8.7389 30.9949 9.13603 30.8306 9.55009 30.8306C9.96416 30.8306 10.3613 30.9949 10.6543 31.2875V31.2855ZM21.0001 9.49172C24.0528 9.49172 26.9806 10.7044 29.1392 12.863C31.2978 15.0217 32.5105 17.9494 32.5105 21.0021C32.5105 24.0549 31.2978 26.9826 29.1392 29.1412C26.9806 31.2998 24.0528 32.5125 21.0001 32.5125C17.9473 32.5125 15.0196 31.2998 12.861 29.1412C10.7024 26.9826 9.48968 24.0549 9.48968 21.0021C9.48968 17.9494 10.7024 15.0217 12.861 12.863C15.0196 10.7044 17.9473 9.49172 21.0001 9.49172ZM21.0001 12.6167C19.8989 12.6167 18.8085 12.8336 17.7911 13.255C16.7738 13.6764 15.8494 14.2941 15.0707 15.0727C14.292 15.8514 13.6744 16.7758 13.253 17.7932C12.8316 18.8105 12.6147 19.9009 12.6147 21.0021C12.6147 22.1033 12.8316 23.1937 13.253 24.2111C13.6744 25.2285 14.292 26.1529 15.0707 26.9315C15.8494 27.7102 16.7738 28.3278 17.7911 28.7492C18.8085 29.1707 19.8989 29.3875 21.0001 29.3875C23.224 29.3875 25.3569 28.5041 26.9295 26.9315C28.502 25.3589 29.3855 23.2261 29.3855 21.0021C29.3855 18.7782 28.502 16.6453 26.9295 15.0727C25.3569 13.5002 23.224 12.6167 21.0001 12.6167ZM19.4376 14.75C19.8152 14.7501 20.18 14.8868 20.4645 15.135C20.7491 15.3832 20.9342 15.726 20.9855 16.1L21.0001 16.3125V21.0063H23.6043C23.9821 21.0064 24.3472 21.1434 24.6318 21.392C24.9164 21.6406 25.1013 21.9839 25.1522 22.3584L25.1647 22.5709C25.1647 22.9485 25.0279 23.3133 24.7797 23.5978C24.5316 23.8824 24.1887 24.0674 23.8147 24.1188L23.6022 24.1334H19.4355C19.058 24.1328 18.6934 23.9955 18.4093 23.747C18.1251 23.4984 17.9405 23.1554 17.8897 22.7813L17.8751 22.5709V16.3125C17.8751 15.8981 18.0397 15.5007 18.3327 15.2077C18.6258 14.9147 19.0232 14.75 19.4376 14.75ZM40.2709 19.475C40.6666 19.4757 41.0473 19.6265 41.3362 19.8969C41.6251 20.1673 41.8006 20.5373 41.8273 20.9321C41.854 21.3269 41.7299 21.7171 41.4801 22.024C41.2303 22.3309 40.8734 22.5315 40.4813 22.5855L40.2709 22.6H37.1459C36.75 22.5999 36.369 22.4495 36.0797 22.1793C35.7904 21.909 35.6145 21.539 35.5875 21.144C35.5606 20.7491 35.6845 20.3586 35.9343 20.0515C36.1842 19.7444 36.5412 19.5436 36.9334 19.4896L37.1459 19.475H40.2709ZM4.85426 19.4146C5.25014 19.4148 5.63122 19.5651 5.92049 19.8354C6.20976 20.1057 6.38566 20.4757 6.41265 20.8706C6.43963 21.2656 6.31569 21.6561 6.06586 21.9632C5.81603 22.2703 5.45895 22.4711 5.06676 22.525L4.85426 22.5396H1.72926C1.33338 22.5395 0.952299 22.3891 0.663027 22.1189C0.373755 21.8486 0.197856 21.4786 0.170873 21.0836C0.143889 20.6887 0.267833 20.2982 0.517661 19.9911C0.767488 19.684 1.12457 19.4832 1.51676 19.4292L1.72926 19.4146H4.85426ZM8.27093 6.1438L8.44593 6.2938L10.6543 8.50005C10.9345 8.7785 11.0989 9.15279 11.1144 9.54758C11.1298 9.94237 10.995 10.3283 10.7373 10.6278C10.4796 10.9273 10.118 11.118 9.7253 11.1615C9.33262 11.2051 8.93801 11.0982 8.62093 10.8625L8.44593 10.7105L6.23759 8.50213C5.9573 8.22368 5.79291 7.84939 5.7775 7.4546C5.76209 7.05981 5.89681 6.67384 6.15454 6.37438C6.41227 6.07493 6.77387 5.88423 7.16655 5.84067C7.55923 5.79712 7.95384 5.90394 8.27093 6.13963V6.1438ZM35.7459 6.2938C36.0105 6.55836 36.1714 6.9091 36.1993 7.28224C36.2273 7.65538 36.1203 8.02615 35.898 8.32713L35.7459 8.50213L33.5376 10.7125C33.2591 10.9928 32.8848 11.1572 32.4901 11.1726C32.0953 11.1881 31.7093 11.0533 31.4098 10.7956C31.1104 10.5379 30.9197 10.1763 30.8761 9.78359C30.8326 9.39091 30.9394 8.9963 31.1751 8.67922L31.3272 8.50005L33.5355 6.29172C33.6806 6.14652 33.8529 6.03134 34.0425 5.95275C34.2322 5.87416 34.4354 5.83372 34.6407 5.83372C34.846 5.83372 35.0493 5.87416 35.2389 5.95275C35.4285 6.03134 35.6008 6.14652 35.7459 6.29172V6.2938ZM21.0001 0.143799C21.3777 0.143815 21.7425 0.280555 22.027 0.52873C22.3116 0.776906 22.4967 1.11973 22.548 1.4938L22.5626 1.7063V4.8313C22.5625 5.22718 22.4121 5.60826 22.1418 5.89753C21.8715 6.1868 21.5016 6.3627 21.1066 6.38969C20.7116 6.41667 20.3211 6.29273 20.0141 6.0429C19.707 5.79307 19.5061 5.43599 19.4522 5.0438L19.4376 4.8313V1.7063C19.4376 1.2919 19.6022 0.89447 19.8952 0.601445C20.1883 0.308419 20.5857 0.143799 21.0001 0.143799Z" fill="#7EB23D"/>
</svg>
