<svg width="69" height="69" viewBox="0 0 69 69" fill="none" xmlns="http://www.w3.org/2000/svg">
<g clip-path="url(#clip0)">
<path d="M1.2105 68.9998C0.70324 68.9998 0.230618 68.6784 0.0622961 68.1706C-0.148881 67.5362 0.194231 66.8511 0.828572 66.6405C1.15174 66.5328 33.2198 55.563 46.2504 26.2235L48.6569 13.0336C48.7774 12.3764 49.4045 11.9387 50.0654 12.0604C50.7226 12.1802 51.1591 12.8109 51.0386 13.4682L48.6061 26.7998C48.5891 26.893 48.5614 26.9844 48.5226 27.0716C35.087 57.5089 1.92597 68.8268 1.59242 68.9381C1.46601 68.9799 1.33704 68.9998 1.2105 68.9998Z" fill="#7EB23D"/>
<path d="M47.6595 26.931C47.4307 26.931 47.205 26.8661 47.0094 26.7415C42.7654 24.0383 40.7691 18.0397 42.0414 11.8139C43.3138 5.59005 47.5046 0.849003 52.4689 0.0161534C52.7649 -0.0322274 53.0675 0.0288213 53.3193 0.189192C57.5633 2.89232 59.5596 8.89099 58.2873 15.1167C57.0144 21.3406 52.8242 26.0817 47.8593 26.9145C47.7927 26.9249 47.7261 26.931 47.6595 26.931ZM52.4072 2.49718C48.6764 3.38394 45.428 7.33378 44.4135 12.2981C43.3984 17.2613 44.8365 22.1621 47.921 24.4324C51.6518 23.5451 54.9002 19.5951 55.9147 14.6315C56.9298 9.66832 55.4917 4.76812 52.4072 2.49718Z" fill="#7EB23D"/>
<path d="M31.9275 48.8633C31.8415 48.8633 31.7556 48.8543 31.6709 48.8354C26.2345 47.6564 21.8572 42.1939 20.778 35.2437C19.6988 28.2922 22.2155 21.7656 27.0412 19.0039C27.3009 18.855 27.6077 18.8083 27.8988 18.8713C33.3347 20.0503 37.7126 25.5128 38.7918 32.463C39.8703 39.4145 37.3537 45.9416 32.5286 48.7028C32.3446 48.8089 32.1369 48.8633 31.9275 48.8633ZM27.8432 21.3512C24.2032 23.7317 22.2911 29.2027 23.1711 34.8722C24.0511 40.5424 27.5344 45.1823 31.7277 46.3565C35.3671 43.9755 37.2797 38.5039 36.3997 32.835C35.5198 27.1647 32.0359 22.5248 27.8432 21.3512Z" fill="#7EB23D"/>
<path d="M51.6616 46.8485C46.4467 46.8485 41.8116 44.7719 39.4087 41.1385C39.2428 40.8873 39.1757 40.5835 39.2217 40.2862C40.0666 34.8037 45.2657 30.1124 52.1586 28.6107C59.0532 27.1085 65.7377 29.2123 68.799 33.8408C68.9649 34.092 69.032 34.3958 68.9861 34.6931C68.1411 40.1756 62.9413 44.8676 56.0486 46.3686C54.5656 46.6918 53.0912 46.8485 51.6616 46.8485ZM41.7008 40.19C44.3107 43.6636 49.9076 45.2288 55.5335 44.0037C61.1576 42.7793 65.5893 39.0309 66.5075 34.7898C63.8969 31.3163 58.3001 29.7516 52.6747 30.9767C47.0507 32.2018 42.6184 35.9496 41.7008 40.19Z" fill="#7EB23D"/>
<path d="M33.3185 68.0521C32.6933 68.0521 32.0589 68.0176 31.4192 67.9486C25.5258 67.3094 20.757 63.8426 19.5524 59.32C19.475 59.0294 19.5089 58.7196 19.6469 58.4521C21.798 54.2946 27.2019 51.9304 33.0953 52.5672C38.9894 53.2064 43.7582 56.6732 44.962 61.1958C45.0395 61.4864 45.0056 61.7956 44.8676 62.0637C42.95 65.7703 38.4475 68.0521 33.3185 68.0521ZM22.0309 59.1511C23.1779 62.4444 27.0613 65.0409 31.6794 65.5421C36.3007 66.0402 40.6524 64.337 42.4821 61.3659C41.3351 58.0726 37.4524 55.4761 32.8336 54.9749C28.2149 54.4767 23.8618 56.1798 22.0309 59.1511Z" fill="#7EB23D"/>
<path d="M32.0154 49.3047C31.9967 49.3047 31.9779 49.3041 31.9585 49.3035C31.2909 49.2726 30.7741 48.7067 30.8049 48.0384C31.1886 39.7106 28.1672 34.5235 28.1363 34.4721C27.795 33.8978 27.9838 33.1545 28.5581 32.8132C29.1325 32.4724 29.8752 32.6613 30.2171 33.235C30.3569 33.4704 33.6399 39.1048 33.2234 48.1499C33.1939 48.7986 32.6582 49.3047 32.0154 49.3047Z" fill="#7EB23D"/>
<path d="M40.1204 41.125C39.4522 41.125 38.9099 40.5827 38.9099 39.9146C38.9099 39.2464 39.4522 38.7041 40.1204 38.7041C47.102 38.7041 52.9883 36.3897 53.0469 36.3666C53.6667 36.1166 54.3718 36.4223 54.6194 37.0427C54.8669 37.6632 54.5643 38.3671 53.9433 38.6152C53.6868 38.7173 47.5621 41.125 40.1204 41.125Z" fill="#7EB23D"/>
</g>
<defs>
<clipPath id="clip0">
<rect width="69" height="69" fill="white"/>
</clipPath>
</defs>
</svg>
